<svg id="Layer_1" data-name="Layer 1" xmlns="http://www.w3.org/2000/svg" viewBox="0 0 1610.96 1049.32"><defs><style>.cls-1,.cls-11{fill:#e81e26;}.cls-2,.cls-5{stroke:#fff;stroke-miterlimit:10;}.cls-2{stroke-width:5px;}.cls-3{fill:#e42028;}.cls-4{fill:#e91d25;}.cls-5{stroke-width:4px;}.cls-6{fill:#cf2d35;}.cls-7{fill:#d62b32;}.cls-8{fill:#e51f28;}.cls-9{font-size:149.71px;font-family:Collegerion;}.cls-10{font-family:MyriadPro-Regular, Myriad Pro;}.cls-11{font-size:64.64px;font-family:AzonixRegular, Azonix;}</style></defs><path d="M1308.09,15.34c64,16.77,124.14,47.15,177.19,86.49,61.42,46.19,109,113.32,124.77,189.12-69,4.74-136.32,24.48-199.62,52-15.43,6.8-30.47,14.56-45.32,22.56,15,32.49,29.7,65.12,45.18,97.46,18,40.83,41.69,79.49,55,122.19-2.26-1.06-6.76-3.26-9-4.32-16.53-23.38-28.7-49.73-47.25-71.73-30.85,36.66-22.23,99.81,21.18,122.76,37.9,23.91,92.67,8.15,113-31.48,23.1-39.77,3.41-97.94-41.11-112.36,3.36,24.3,10.11,47.87,15.24,71.78-2.35,0-7.09,0-9.44,0-17.35-63.92-40.63-126.06-58.89-189.74,46.77-25.73,98.08-45.95,151.41-51.89-30.47,11.5-60.94,23.43-89.79,38.66-10.83,6.57-23,12.7-29.9,23.82.63,17.77,6.61,34.78,9.15,52.27,1.06,5.85,2,11.79,3.17,17.63,3.4,9.54,1.34,24.11,12.69,28.42,31.68,14.47,57.45,46.57,55,82.7,2.88,42.4-31.67,81-72.4,88.55-36.85,7.66-77.14-11.12-95.35-43.94-17-30-14.66-69.72,6-97.41,9.39-10.5-2.45-21.52-7.43-30.81-3.4-5.56-6.71-11.17-10-16.72-1.59-2.69-4.84-8.05-6.42-10.69-33.5,26.31-63.11,57.35-91.19,89.27-13.84,16.29-26.25,33.63-39.53,50.35-14.08-40.1-11.35-83.85-4.26-125.1-39.29,43.75-65.6,100.28-70.58,159.12-9.1-14.42-8.19-31.81-8.1-48.15-.09-27.17,9.63-53.28,22-77.05,32.63-60.37,84.09-108.24,139.72-147.38a705.54,705.54,0,0,1,194.39-95c-4.93-51.08-36.84-94.63-69.23-132.53C1408.32,80.17,1359.55,45,1308.09,15.34ZM1263,439.92c-4.84,4.88-10.4,9.91-11.26,17.2-5.85,28-6.08,56.92-4.07,85.43,35.84-39.67,72.54-78.58,112.31-114.42-8.58-14.76-17.06-29.61-27.12-43.41A497.33,497.33,0,0,0,1263,439.92Z" transform="translate(-153.52 -15.34)"/><path class="cls-1" d="M884.23,123.53C925.63,90.18,974.65,57.94,1030,59.9c48.92,0,97.45,9,144.56,21.8,58.83,15.53,115.76,39.15,167.46,71.4-29.8.14-58-10.45-86.73-16.49C1184.75,121,1112.78,103.07,1040,110.26c-81.88,7.24-155,48.06-226.16,86C833.06,168.24,858.79,145.67,884.23,123.53Z" transform="translate(-153.52 -15.34)"/><path class="cls-1" d="M1350.73,67.23c26.93,9.11,47.77,29.33,69.29,47.05,25.25,20.32,41,49.31,58.12,76.24,7.71,13.89,18.4,28,17.77,44.7-5.84,8.2-16.72,10.26-25.44,14.14C1390.16,276.91,1313,316.87,1249.73,374c-33.83,33.07-63.68,71.35-81.08,115.67-9.44,20.65-13.41,43.32-23.33,63.78-6.71-17-1.2-35.08,2-52.18,9.44-40.25,22.67-81,49-113.61,15.72-19.41,29.13-40.87,47.92-57.55,44.56-41.35,95.06-75.75,147.43-106.37,14.28-8.91,35.27-14.42,38.38-33.63,4-27-15.86-49.07-31.19-68.81C1384.65,101.59,1364.91,86.88,1350.73,67.23Z" transform="translate(-153.52 -15.34)"/><path class="cls-2" d="M948.53,147.68c27.94-14.32,60.52-14,91.14-16.1,51.17,1.63,103.83,7.72,150.31,30.72,18.54,9.1,39.33,16.86,51.55,34.54-23.48,15.38-50.69,23.29-75.85,35.32-48.39,23.38-99.66,39.86-148.49,62.29-20.79,8.62-41.35,18.35-63.39,23.43,44.32-39,100.58-61.53,147.29-97.27,15.38-12.75-.24-30.62-12.31-38.53C1047.33,154.44,995.68,156.16,948.53,147.68Z" transform="translate(-153.52 -15.34)"/><path class="cls-2" d="M712.22,320.51c13-3.26,25,4.79,36,10.59,21.23,13.08,41.73,28.27,57.59,47.72C843,429.09,860.9,490.23,873.35,550.7c40,16.91,84.86,19.11,123.91,38.18-30.47,3.31-61.14,1.44-91.66,2-35.36-.39-70.72,1.1-106-1.25,11.84-48.49,17.78-100.24,1.11-148.39C782.46,394.25,755.77,348.11,712.22,320.51Z" transform="translate(-153.52 -15.34)"/><path class="cls-2" d="M287.21,432.11c8.29-12.65,21-21.28,34.21-28.13-7.95,22-20.51,42.4-25,65.59-10.21,44.18-14.38,92.67,6,134.69C320.7,651.75,364,687.3,413.08,699c48.87,10.45,99,5,148-1.72-18.25,22.61-47.1,32.2-74.12,39.67-24.77,5.61-50.89,9.44-75.95,3.31-35.26-8.68-70.53-21.85-98.7-45.38-47-42.26-68.57-108.53-61.81-170.67C253.76,490.75,268.62,459.66,287.21,432.11Z" transform="translate(-153.52 -15.34)"/><path d="M201.25,79.74c71.87-.82,143.79-.77,215.66,2,43.27,4.36,89.27,4.17,128.46,25.59,17.06,8.43,24.49,26.69,36.18,40.49,37.13,39.43,87.88,66.26,141.93,72.11,48.1,8.29,96.69-.86,143.88-10.26-98.46,52.52-231,43.13-315.71-32-14.95-12.17-23.81-31-41.4-40.06-33.3-17.92-71-25.35-107.85-32C335.6,95.26,268.47,86.88,201.25,79.74Z" transform="translate(-153.52 -15.34)"/><path class="cls-2" d="M274.51,114.81c.29-10,12.46-5.08,18.78-5.22,86.2,16.15,174.8,37.18,247.63,88.4,15.24,12.08,33.35,23.77,39.82,43.13-7.29-.87-14.62-1.68-21.61-3.93C502.35,217.88,444.61,201,389.75,176.53,350,158.8,309.58,141,274.51,114.81Z" transform="translate(-153.52 -15.34)"/><path class="cls-2" d="M594.39,443.13c41.5-6.57,72.07-39.29,110.83-53.09,10-.1,19.45,4,28.94,6.7l.58,1.68c3.54,10.83,8.19,21.28,12.41,31.86-36.8,16-73.84,31.53-110.4,48.21C623.24,465.93,608.77,454.58,594.39,443.13Z" transform="translate(-153.52 -15.34)"/><path class="cls-3" d="M315.86,163.69c17.49,3.54,33.59,11.4,50,18.25,40.92,17.2,82.17,33.69,124,48.63,31.44,13.42,64.88,22,95,38.43q39.45,20.06,78.2,41.54c5.7,2.88,10.11,7.53,13.84,12.65-8.81-.95-17.58-1.72-26.3-3-55.54-22.76-116.63-31.52-167.94-64C427.36,224.78,369.33,198,315.86,163.69Z" transform="translate(-153.52 -15.34)"/><path class="cls-4" d="M1159.55,269.48c46.24-15.91,92.28-32.48,139.15-46.52-42.36,23.47-87.74,40.87-130.24,64.15-59.75,30.05-120.22,62.82-167.17,111.36-12.51,11.07-7.62,28.94-7.62,43.51,3.88,41.63,8.72,83.37,5.41,125.25-12.65-47.63-32.44-92.86-52.32-137.81C939.33,412,929,395.64,925.29,376.91,998.27,331,1079,299.28,1159.55,269.48Z" transform="translate(-153.52 -15.34)"/><path d="M345.28,269.29c4.6-5.22,8.82-14.85,17.3-12.36,24.34,16.43,45.9,36.75,69.14,54.76,7.76,6.23,18.45,5.37,27.79,7.19a219.7,219.7,0,0,1,101.25,36.75c5.75,3.21,9.1,9,12.07,14.66-35.6-17.92-71.87-39.81-113.41-38.09a1157,1157,0,0,0,95.73,77.34c31.86-29.71,64.64-58.46,95.4-89.32,8.72,1.25,17.49,2,26.3,3l12.08,2.11c-38.76,33.88-82.18,62.05-120.27,96.55,8.53,7.19,17.06,14.33,25.73,21.28,14.38,11.45,28.85,22.8,42.36,35.36,36.56-16.68,73.6-32.2,110.4-48.21-4.22-10.58-8.87-21-12.41-31.86,27.64,8.72,51.36,31.58,56.87,60.66,6.95,38.38-4.22,77.24-18.35,112.75,1.48-38.53,0-77.72-12.75-114.47-39.14,13-78.29,26.25-116.67,41.4C661,533,681.69,565.31,702.63,597.32c4,5.17,7.24,11.5,13,15,63.2,4.94,126.64,4.7,190,5.37,79.3,6.8,159.22.38,238.43,8.58,0,1.34,0,4,0,5.36-45.91.48-92-1-137.71,2.88-75.08.86-150.21.43-225.15,4.74-28-.19-56.26,1.63-84-3.69-10.4-13.41-21.08-26.59-31.53-40-18.88-23.76-36.89-48.2-56.11-71.68-23.86,13.66-51.84,15.62-78.63,12,.63,22.66-1.53,47.24-17.1,65.21-21.8,28.56-62.24,38.14-95.45,26-22.71-8.86-40.87-28.08-49.16-50.93-10.16-29.23-2.39-63.73,20.08-85.2,14.08-15.62,34.59-22.28,54.57-26.3,20.13,16.67,42.41,30.76,66.65,40.73,20.13,7.76,42.6,14.47,64.07,8,14.42-4.22,25.1-15.24,35.6-25.3a133.67,133.67,0,0,0-18.69-19.5c-59.08-48-117.73-96.5-177.81-143.22-11.22-8.29-21.23-19.12-34.79-23.52-30.52,12.26-33.73,49.64-31.62,78.05q-3.88-9.27-7.91-18.4C329,332,328.75,296.6,345.28,269.29Zm33.4,301.1c10.92,39.86,59.13,63.53,97.07,46.38,32.73-12.31,50.75-49,44.18-82.8-29,6.61-57,17.25-85.77,24.87,23.15-17.2,51.8-24.39,76.19-39.48-8.53-7-16.53-15-26.64-19.69-21.37,11-37.23,30.47-58.17,42.4,4.74-22.66,30.66-30.52,43.17-48.25,2.54-12-12.79-19.21-22.95-17.44C400.05,476.62,363.15,526.88,378.68,570.39Z" transform="translate(-153.52 -15.34)"/><path class="cls-5" d="M1001.29,398.47c47-48.54,107.42-81.31,167.17-111.36-11.83,16.49-31.09,24.87-48.06,35-15.19,7.86-26.64,20.85-40.53,30.52-21.52,14.76-42.74,30.43-59.8,50.32-6.23,6.56-7.28,15.76-8.19,24.34-3.89,38.28-7.24,76.76-6,115.28.43,10.92.14,22.14-4.41,32.34-.62-1.91-1.82-5.75-2.4-7.66,3.31-41.88-1.53-83.62-5.41-125.25C993.67,427.41,988.78,409.54,1001.29,398.47Z" transform="translate(-153.52 -15.34)"/><path class="cls-1" d="M359.46,355.92c-.91-13.7,11-21.75,20.46-29.13,1.68,18.73,4.36,38.67,17.49,53.23,23.77,27.22,49.26,53.67,79.78,73.41C498.75,468,522,480.12,541.88,497c-10.5,2.78-20.94,5.51-31.39,8.34-24.24-10-46.52-24.06-66.65-40.73-2.87-6.71-4.41-15.19-11.54-18.78-6.71-4.36-14.52.19-21.28,2-.43-2-1.34-6-1.77-7.95l-9.39-2.49,5.17-9.2C385.29,407.81,360.9,386.3,359.46,355.92Z" transform="translate(-153.52 -15.34)"/><path d="M200.91,613.66c-31-107.43,27.65-232.49,131.1-275.56,3,8.09,2.83,15.38-.48,21.8a219.57,219.57,0,0,0-91.61,106.56c-22.19,57-19.65,123.33,8.14,178,26.83,51.75,74.32,93.25,130.81,109.16,56.64,18.06,120.31,9.77,171.73-19.65,52.32-30.14,90.7-83,102.54-142.36,2.34.77,7,2.26,9.34,3C650.6,666,603.54,730.09,539.15,763c-63.44,33.73-142.26,35.88-207.43,5.7C268.09,739.62,218.16,681.74,200.91,613.66Z" transform="translate(-153.52 -15.34)"/><path d="M1561.41,342.07c64.78,19.65,120.22,69.1,145.66,132.06,24.54,56.44,24.39,122.8-.38,179.1-21.46,52.09-63.2,94.54-113.6,119.17-67.8,31.53-151,29.42-215.43-9.49-54.38-32.73-100-88.21-107-152.85,10,48.44,43.32,88.93,82.08,118,52.52,37.32,121.9,50.4,184.14,33,73.5-18.59,134.26-79.11,154.14-152.13,21-73.93,1.06-158.84-54.24-213C1615.8,372.64,1587.77,358.17,1561.41,342.07Z" transform="translate(-153.52 -15.34)"/><path class="cls-2" d="M1365.11,365.5c14.85-8,29.89-15.76,45.32-22.56,18,67.12,46.82,131.38,59.47,199.94-26-22.47-25.69-60.51-45.91-87.06-3.45,1.78-10.3,5.32-13.7,7.14C1394.81,430.62,1380.15,398,1365.11,365.5Z" transform="translate(-153.52 -15.34)"/><path class="cls-2" d="M1263,439.92a497.33,497.33,0,0,1,69.86-55.2c10.06,13.8,18.54,28.65,27.12,43.41-39.77,35.84-76.47,74.75-112.31,114.42-2-28.51-1.78-57.4,4.07-85.43C1252.55,449.83,1258.11,444.8,1263,439.92Z" transform="translate(-153.52 -15.34)"/><path class="cls-6" d="M1489.92,432.87c32.59,8.05,65.26,25.35,82,55.63-18.49-20.94-42.78-39.82-71.68-41.4l-7.18,3.4C1491.94,444.66,1491,438.72,1489.92,432.87Z" transform="translate(-153.52 -15.34)"/><path class="cls-6" d="M399.86,437.38l9.39,2.49c.43,2,1.34,5.94,1.77,7.95-26.5,10.54-50.41,29.37-61.86,56.06-21.85,42.12-9.1,97.22,26.55,127.7,14.18,13.36,33.11,19.11,50.69,26.44-25.78-2.73-51-13.22-69.52-31.57C322.67,593,313.61,537.09,335.6,494.54,348.11,467.42,373.22,449.16,399.86,437.38Z" transform="translate(-153.52 -15.34)"/><path class="cls-6" d="M723.38,665.83c29.56-.38,59.08-2,88.59-1.82-1.91,1.82-5.75,5.56-7.66,7.38-2.21.19-6.66.58-8.91.72C771.58,667.75,747.05,671.2,723.38,665.83Z" transform="translate(-153.52 -15.34)"/><path class="cls-2" d="M1284,539.87c28.08-31.92,57.69-63,91.19-89.27,1.58,2.64,4.83,8,6.42,10.69-16,20.6-33.54,41.54-38.86,67.89-8.29,29.18-1.06,59.27,7.71,87.4-.33,7.38-4.84,15.57.24,22.33,17.68,28.22,43.36,52.51,75,64.15,28,11.12,58.69,13.8,88.54,11.12,23-1.82,44.23-12.17,67.23-14-7.28,12.36-19.12,21-32.34,26.21-52.9,21.7-113.9,16.77-165.93-5.22-39.77-18.59-74.13-51.66-88.17-94C1284.37,599.14,1292,568.42,1284,539.87Z" transform="translate(-153.52 -15.34)"/><path class="cls-7" d="M1381.64,461.29c3.3,5.55,6.61,11.16,10,16.72-20.41,22.9-36.75,51.94-35,83.56-4.74,64.45,54.63,126.88,119.31,123.57-22.42,6.66-45.52-1.34-66-10.54-25.68-12.07-44.22-34.78-59.46-58-8.77-28.13-16-58.22-7.71-87.4C1348.1,502.83,1365.63,481.89,1381.64,461.29Z" transform="translate(-153.52 -15.34)"/><path class="cls-5" d="M378.68,570.39c-15.53-43.51,21.37-93.77,67.08-94,10.16-1.77,25.49,5.41,22.95,17.44-12.51,17.73-38.43,25.59-43.17,48.25,20.94-11.93,36.8-31.43,58.17-42.4,10.11,4.69,18.11,12.74,26.64,19.69-24.39,15.09-53,22.28-76.19,39.48,28.8-7.62,56.74-18.26,85.77-24.87,6.57,33.83-11.45,70.49-44.18,82.8C437.81,633.92,389.6,610.25,378.68,570.39Z" transform="translate(-153.52 -15.34)"/><path class="cls-8" d="M1197.31,656.64a179,179,0,0,1,22.47-105.18c.29,26-2.35,52.52,4.22,78,4.5,25.06,16.91,47.58,31.67,67.94-52.76.05-105.46-8.72-158.27-3.16a254.43,254.43,0,0,0,29.28-4.41c-110.54-4.31-220.74-13.66-331.28-17.73,2.25-.14,6.7-.53,8.91-.72,52.23-10.06,105.6-11.4,158.74-11.54C1041.15,659.51,1119.21,655.53,1197.31,656.64Z" transform="translate(-153.52 -15.34)"/><text class="cls-9" transform="translate(0 966.54) scale(2 1)">MOTORI<tspan class="cls-10" x="411.33" y="0"> </tspan><tspan x="443.07" y="0">STYLE</tspan></text><text class="cls-11" transform="translate(133.12 1037.49) scale(2.13 1)">Accessoir-moto</text></svg>